Patient4_TMGait_0pt8_01_left_50_EMG.mot
version=1
nRows=23
nColumns=33
inDegrees=no
endheader
time	1LAddLong	2LGlutMax	3LGlutMed	4LIliopsoas	5LSemiMemb	6LBicFemLong	7LRecFem	8LVastMed	9LVastLat	10LGasMed	11LTibAnt	12lTibPost	13LPeroneusLong	14LSol	15LExtDigLong	16LFlexDigLong	17RAddLong	18RGlutMax	19RGlutMed	20RIliopsoas	21RSemiMemb	22RBicFemLong	23RRecFem	24RVastMed	25RVastLat	26RGasMed	27RTibAnt	28RTibPost	29RPeroneusLong	30RSol	31RExtDigLong	32RFlexDigLong
56.12	-0.025482	0.53604	0.021667	-0.005493	0.040436	-0.030518	0.41596	0.024414	-0.44067	0.063934	-0.23163	-0.034027	0.24292	0.006104	-0.36926	0.072479	0.11871	0.59723	0.031128	-0.092163	-0.19638	-0.19623	0.86838	-0.012512	-0.053101	-0.017853	0.091553	-0.007324	-0.040131	0.18509	-0.005035	-0.0177
56.121	-0.02533	0.62759	-0.02594	0.00885	-0.082245	-0.10498	0.52063	0.036926	-0.35126	0.044861	-0.43366	-0.030823	0.24445	0.005188	-0.10101	0.027161	0.10147	0.52887	-0.15243	-0.093994	-0.18036	-0.083313	0.89401	0.009308	-0.077667	-0.011902	-0.001678	-0.006409	-0.097198	0.082092	-0.006104	-0.014343
56.122	-0.008698	0.74371	0.02655	0.018921	-0.16693	-0.097809	0.59982	0.03006	-0.24887	0.071564	-0.26855	-0.035858	-0.024109	-0.12634	-0.10101	0.066833	0.061951	0.52963	-0.1532	-0.15442	-0.16266	-0.042419	0.90454	0.02594	-0.066986	-0.003662	-0.052185	-0.007477	-0.16724	-0.05188	-0.00412	-0.013885
56.123	0.019073	0.81924	-0.005035	0.006256	-0.13351	-0.19119	0.61096	0.006561	-0.31586	-0.09079	-0.12695	-0.018463	-0.1059	-0.29098	-0.083923	0.15656	-0.021057	0.59662	-0.11826	-0.13672	-0.16357	-0.008545	0.90561	0.055389	-0.049286	0.001373	0.070953	-0.010681	-0.1088	-0.13092	-0.003662	-0.012817
56.124	0.018158	0.80429	-0.075836	-0.013123	-0.11093	-0.17227	0.70236	0.002899	-0.43549	-0.30502	-0.15274	-0.001068	-0.073853	-0.085907	0.069122	-1.1063	-0.098267	0.5751	-0.19104	-0.065155	-0.14328	0.002747	0.88882	0.077667	-0.037384	-0.003815	0.28	-0.011139	-0.095062	-0.16815	-0.002441	-0.013428
56.125	0.014191	0.85632	-0.097961	0.006561	-0.029755	-0.11444	0.69092	-0.002899	-0.41641	-0.36926	-0.15289	-0.004578	-0.11932	-0.01236	0.013733	0.49591	-0.13947	0.56946	-0.18188	0.042572	-0.1265	0.001068	0.8432	0.090485	-0.010223	-0.000458	0.35019	-0.010681	-0.10162	-0.19516	-0.002594	-0.012207
56.126	0.016785	0.93826	-0.16052	0.002136	0.00946	-0.10239	0.59128	-0.024567	-0.28824	-0.32318	-0.10513	-0.059509	-0.05127	-0.013733	0.44784	0.019836	-0.14008	0.59906	-0.26688	0.10269	-0.13428	-0.058289	0.90454	0.10696	-0.041199	-0.005188	0.26474	-0.00885	-0.06546	-0.13214	-0.002747	-0.007019
56.127	0.024567	1.0033	-0.21744	0.003815	-0.06012	-0.055389	0.59891	-0.041199	-0.22553	-0.31662	-0.028076	-0.011292	-0.055237	-0.242	-0.072632	0.2124	-0.1532	0.64438	-0.31876	0.11719	-0.15671	-0.084229	0.91736	0.14084	-0.036926	-0.000305	-0.15564	-0.008087	-0.068207	-0.070648	-0.003204	-0.001373
56.128	0.0354	0.98709	-0.27054	-0.001831	-0.012512	0.029144	0.60837	0.001068	-0.24963	-0.25223	-0.042572	0.13473	-0.079346	-0.47379	-0.17639	0.39169	-0.11444	0.67764	-0.30441	0.028381	-0.16357	0.045776	0.95001	0.13534	-0.068207	-0.002899	-0.56854	-0.00946	-0.11032	-0.031586	0	-0.007935
56.129	0.022888	0.88821	-0.25497	0.001526	0.080719	0.051422	0.62485	0.024109	-0.24872	-0.27878	-0.024261	0.11643	-0.099945	-0.37705	-0.24857	0.17853	-0.091095	0.6189	-0.27542	-0.048676	-0.12268	0.063171	0.98038	0.11902	-0.077515	0.000916	-0.79804	-0.008087	-0.075684	-0.044861	-0.001984	-0.002441
56.13	0.014801	0.76126	-0.20355	0.030518	0.11246	0.080719	0.7254	0.00412	-0.27145	-0.28564	-0.00824	-0.078278	-0.027161	-0.19913	-0.045624	0.24445	-0.079498	0.62012	-0.26459	-0.056458	-0.077972	-0.00412	0.93475	0.037994	-0.080261	-0.006104	-0.59235	-0.010071	-0.003815	-0.041046	-0.001221	-0.001984
56.131	0.017548	0.69382	-0.10132	0.016327	0.099182	0.15579	0.68222	0.019226	-0.23895	-0.048676	-0.010681	0.037994	0.016632	-0.13672	0.050049	-0.33539	-0.091095	0.58411	-0.2684	0.001984	-0.092468	-0.029907	0.93231	0.054321	-0.08194	-0.005035	0.048218	-0.007935	0.050507	-0.097656	-0.002899	-0.002441
56.132	0.02121	0.74539	0.17716	0.025482	0.065155	0.16129	0.61859	0.010529	-0.19211	0.063934	0.00412	0.1535	-0.076599	-0.31143	0.046539	-0.37323	-0.075378	0.50522	-0.30777	0.06546	-0.12177	-0.020142	0.93597	0.072021	-0.0914	-0.003967	1.0538	0.004272	0.066223	-0.13123	0.002747	0.002289
56.133	0.015869	0.80948	0.3714	0.022583	-0.001526	0.19806	0.55847	0.005341	-0.18753	0.096588	0.002441	0.21896	-0.10422	-0.46692	0.037079	0.54352	0.002899	0.43701	-0.36224	0.11002	-0.18143	-0.067139	0.93689	0.045013	-0.08255	-0.003662	1.203	-0.006256	0.038147	-0.15442	-0.002747	-0.009308
56.134	0.012665	0.84259	0.3569	0.015869	-0.019379	0.15472	0.4567	-0.003204	-0.16052	0.13947	0.009155	-0.1001	-0.027466	-0.39459	0.042725	-0.21332	0.062408	0.42725	-0.42023	0.18249	-0.16434	-0.1033	0.92148	0.043182	-0.082397	-0.004272	0.522	-0.004578	0.008698	-0.1619	-0.002289	-0.012512
56.135	-0.013733	0.82962	0.17029	-0.007172	-0.039368	0.14801	0.39978	-0.008087	-0.14099	0.23483	0.011292	0.14328	0.036621	0.14114	0.021362	0.22964	0.088654	0.34332	-0.3656	0.18616	-0.14999	-0.11688	0.9256	0.12161	-0.049896	-0.003052	-0.29862	-0.008545	-0.037231	-0.15839	-0.003052	-0.011292
56.136	-0.023804	0.87814	0.056915	-0.008392	-0.060425	0.13718	0.21744	-0.006866	-0.16449	0.18204	0.005035	0.10101	0.17868	0.3035	0.030823	0.18234	0.09613	0.29785	-0.14206	0.1152	-0.12436	-0.091248	0.90393	0.093536	-0.058594	-0.003052	-0.76935	-0.009613	-0.055389	-0.16434	-0.003357	-0.014191
56.137	-0.027161	0.98816	-0.075531	-0.014038	-0.064392	0.24445	0.12589	-0.008545	-0.13657	0.076447	0.007477	0.098724	0.15457	0.19104	0.059814	-0.67078	0.11292	0.25146	-0.38284	-0.014648	-0.12085	-0.1413	0.90103	0.046692	-0.068359	0.004272	-0.28076	-0.007477	-0.007782	-0.14938	0.005951	-0.005798
56.138	-0.032654	1.1414	-0.12741	0.003662	-0.046082	0.39154	0.08255	-0.014038	-0.10254	0.039825	0.007935	0.14267	0.15778	0.23666	0.05188	0.039978	0.15457	0.18997	-0.49423	-0.082703	-0.094452	-0.13367	0.86975	0.030518	-0.06073	-0.007629	-0.17883	-0.005341	-0.056915	-0.084686	-0.001068	-0.0177
56.139	-0.041656	1.207	-0.25574	0.017242	-0.061951	0.45273	-0.01236	0	-0.1442	0.039825	0.012512	0.18082	0.10925	-0.011444	0.002289	0.10178	0.13123	0.035095	-0.858	-0.11795	-0.072632	-0.05722	0.84274	-0.066681	-0.06485	-0.005493	-0.30243	-0.008545	-0.083313	-0.095673	0.003662	-0.021667
56.14	-0.053253	1.2424	-0.24292	0.020447	-0.15427	0.31525	-0.1059	0.002747	-0.20355	0.072174	0.018921	0.23651	0.067444	-0.22018	-0.010376	-0.03891	0.12146	-0.027618	-0.98541	-0.18356	-0.076141	0.096283	0.82321	-0.15396	-0.074921	-0.003357	-0.39185	-0.007477	-0.000916	-0.10132	-0.000916	-0.012817
56.141	-0.01709	1.1923	-0.27756	0.017853	-0.21088	0.14374	-0.20615	0.000153	-0.23483	-0.066071	0.017242	0.27374	0.070953	-0.3595	0.013733	0.20752	0.073242	-0.054932	-0.84625	-0.23025	-0.103	0.091248	0.78781	-0.17044	-0.04303	-0.001831	-0.24643	-0.008392	0.053101	-0.032806	-0.000916	-0.012512
56.142	0.022278	1.2456	-0.23056	0.024719	-0.10391	0.066833	-0.32028	-0.014038	-0.18784	-0.12528	0.035248	0.29938	0.034485	-0.11368	0.015717	0.082092	0.013275	-0.038452	-0.7579	-0.18158	-0.090179	0.003052	0.69366	-0.19028	-0.011139	0.007782	-0.29633	-0.006256	0.1358	-0.083923	-0.00061	-0.00946
